<svg width="18" height="16" viewBox="0 0 18 16" fill="none" xmlns="http://www.w3.org/2000/svg">
<path fill-rule="evenodd" clip-rule="evenodd" d="M2.72143 2.52522C2.29304 2.52522 1.93928 2.87897 1.93928 3.30736V12.6931C1.93928 13.1215 2.29304 13.4752 2.72143 13.4752H15.2357C15.6641 13.4752 16.0178 13.1215 16.0178 12.6931V3.30736C16.0178 2.87897 15.6641 2.52522 15.2357 2.52522H2.72143ZM0.375 3.30736C0.375 2.01504 1.42911 0.960938 2.72143 0.960938H15.2357C16.528 0.960938 17.5821 2.01504 17.5821 3.30736V12.6931C17.5821 13.9854 16.528 15.0395 15.2357 15.0395H2.72143C1.42911 15.0395 0.375 13.9854 0.375 12.6931V3.30736Z" fill="white"/>
<path fill-rule="evenodd" clip-rule="evenodd" d="M0.555516 2.63056C0.803232 2.27668 1.29092 2.19061 1.6448 2.43833L9.0177 7.59935L16.3906 2.43833C16.7445 2.19061 17.2322 2.27668 17.4799 2.63056C17.7276 2.98444 17.6415 3.47212 17.2876 3.71984L9.46622 9.19484C9.19692 9.38335 8.83847 9.38335 8.56917 9.19484L0.747743 3.71984C0.393863 3.47212 0.3078 2.98444 0.555516 2.63056Z" fill="white"/>
</svg>
