<svg width="22" height="22" viewBox="0 0 22 22" fill="none" xmlns="http://www.w3.org/2000/svg">
<g clip-path="url(#clip0_2086_7185)">
<path fill-rule="evenodd" clip-rule="evenodd" d="M10.9999 2.24998C9.1434 2.24998 7.36295 2.98747 6.05021 4.30021C4.73747 5.61295 3.99998 7.3934 3.99998 9.2499C3.99998 11.9607 5.76373 14.5911 7.69764 16.6324C8.64671 17.6342 9.59875 18.4543 10.3145 19.0243C10.5809 19.2364 10.8135 19.4131 10.9999 19.5508C11.1862 19.4131 11.4189 19.2364 11.6853 19.0243C12.401 18.4543 13.3531 17.6342 14.3021 16.6324C16.2361 14.5911 17.9998 11.9607 17.9998 9.2499C17.9998 7.3934 17.2623 5.61295 15.9496 4.30021C14.6368 2.98747 12.8564 2.24998 10.9999 2.24998ZM10.9999 20.6248C10.5145 21.3528 10.5143 21.3526 10.5141 21.3525L10.5116 21.3508L10.5057 21.3469L10.4857 21.3333C10.4686 21.3218 10.4443 21.3051 10.4133 21.2836C10.3511 21.2406 10.2618 21.1779 10.1492 21.0965C9.92414 20.934 9.60548 20.6967 9.22439 20.3932C8.46359 19.7874 7.4469 18.9123 6.42724 17.8359C4.4237 15.7211 2.25 12.6641 2.25 9.2499C2.25 6.92928 3.17186 4.70371 4.81278 3.06278C6.45371 1.42186 8.67928 0.5 10.9999 0.5C13.3205 0.5 15.5461 1.42186 17.187 3.06278C18.8279 4.70371 19.7498 6.92928 19.7498 9.2499C19.7498 12.6641 17.5761 15.7211 15.5725 17.8359C14.5529 18.9123 13.5362 19.7874 12.7754 20.3932C12.3943 20.6967 12.0757 20.934 11.8506 21.0965C11.738 21.1779 11.6487 21.2406 11.5865 21.2836C11.5554 21.3051 11.5311 21.3218 11.5141 21.3333L11.4941 21.3469L11.4882 21.3508L11.4864 21.352C11.4861 21.3522 11.4853 21.3528 10.9999 20.6248ZM10.9999 20.6248L11.4853 21.3528C11.1913 21.5487 10.808 21.5484 10.5141 21.3525L10.9999 20.6248Z" fill="white"/>
<path fill-rule="evenodd" clip-rule="evenodd" d="M11 7.49998C10.0335 7.49998 9.24998 8.28347 9.24998 9.24996C9.24998 10.2164 10.0335 10.9999 11 10.9999C11.9664 10.9999 12.7499 10.2164 12.7499 9.24996C12.7499 8.28347 11.9664 7.49998 11 7.49998ZM7.5 9.24996C7.5 7.31698 9.06698 5.75 11 5.75C12.9329 5.75 14.4999 7.31698 14.4999 9.24996C14.4999 11.1829 12.9329 12.7499 11 12.7499C9.06698 12.7499 7.5 11.1829 7.5 9.24996Z" fill="white"/>
</g>
<defs>
<clipPath id="clip0_2086_7185">
<rect width="20.9997" height="20.9997" fill="white" transform="translate(0.5 0.5)"/>
</clipPath>
</defs>
</svg>
