<svg width="18" height="18" viewBox="0 0 18 18" fill="none" xmlns="http://www.w3.org/2000/svg">
<path d="M15.3342 17.7495C15.2624 17.7495 15.1906 17.7495 15.1108 17.7415C12.5333 17.4622 10.0277 16.5685 7.86522 15.1641C5.85433 13.8873 4.11476 12.1477 2.83801 10.1369C1.43358 7.96637 0.539851 5.45277 0.268541 2.87532C0.236623 2.53219 0.276521 2.20503 0.380257 1.88584C0.483993 1.56665 0.659547 1.27938 0.882978 1.03201C1.10641 0.78464 1.37772 0.593127 1.68095 0.457472C1.99216 0.321817 2.31932 0.25 2.65447 0.25H5.04838C5.60696 0.25 6.1815 0.449493 6.62836 0.832518C7.06725 1.20756 7.35452 1.73422 7.43431 2.30876C7.53007 3.01896 7.70562 3.72117 7.953 4.38349C8.11259 4.81439 8.15249 5.27721 8.04875 5.72408C7.953 6.17094 7.72956 6.58588 7.41038 6.90507L6.83584 7.47961C7.77744 8.94788 9.02227 10.2007 10.4985 11.1423L11.0731 10.5678C11.4002 10.2406 11.8152 10.0172 12.262 9.92938C12.7089 9.83362 13.1717 9.86554 13.6026 10.0251C14.2649 10.2725 14.9672 10.4481 15.6694 10.5438C16.2599 10.6236 16.7865 10.9189 17.1696 11.3657C17.5446 11.8126 17.7521 12.3791 17.7361 12.9617V15.3476C17.7361 15.6827 17.6723 16.0019 17.5366 16.3131C17.401 16.6164 17.2015 16.8957 16.9621 17.1191C16.7147 17.3425 16.4274 17.5181 16.1083 17.6218C15.8529 17.7096 15.5975 17.7495 15.3342 17.7495ZM5.06434 1.84594H5.05636H2.65447C2.54276 1.84594 2.43902 1.86988 2.33528 1.91776C2.23155 1.95766 2.13579 2.02149 2.06397 2.10129C1.98418 2.18109 1.92832 2.27684 1.8964 2.38856C1.86448 2.4923 1.84852 2.60401 1.8565 2.71573C2.10387 5.03782 2.90982 7.30406 4.1786 9.27504C5.33565 11.0944 6.90765 12.6664 8.72703 13.8235C10.69 15.1002 12.9563 15.8982 15.2704 16.1535C15.3661 16.1615 15.4779 16.1456 15.5816 16.1136C15.6853 16.0817 15.7811 16.0179 15.8689 15.9461C15.9566 15.8743 16.0205 15.7785 16.0604 15.6748C16.1082 15.571 16.1242 15.4593 16.1242 15.3476V12.9537C16.1242 12.9457 16.1242 12.9377 16.1242 12.9377C16.1322 12.7382 16.0604 12.5547 15.9327 12.4031C15.805 12.2515 15.6295 12.1557 15.438 12.1318C14.624 12.028 13.8101 11.8206 13.0281 11.5333C12.8844 11.4774 12.7249 11.4695 12.5812 11.5014C12.4296 11.5333 12.294 11.6051 12.1822 11.7168L11.1768 12.7303C10.9214 12.9856 10.5304 13.0335 10.2192 12.8579C8.09663 11.653 6.34109 9.88948 5.12818 7.77486C4.96061 7.43971 5.00848 7.04871 5.26383 6.79336L6.27726 5.77993C6.38099 5.6762 6.45281 5.54054 6.48473 5.38893C6.51665 5.23731 6.50867 5.0857 6.45281 4.94207C6.15756 4.16005 5.95807 3.34612 5.84635 2.52421C5.82241 2.34068 5.72666 2.16513 5.58302 2.03745C5.43939 1.91776 5.25586 1.84594 5.06434 1.84594Z" fill="white"/>
</svg>
