<svg width="1892" height="165" viewBox="0 0 1892 165" fill="none" xmlns="http://www.w3.org/2000/svg">
<path d="M118.432 230.56C96.3501 230.56 76.2658 225.723 58.1795 216.049C40.3035 206.375 26.213 192.915 15.908 175.67C5.60297 158.215 0.450469 138.236 0.450469 115.733C0.450469 93.2301 5.60297 73.251 15.908 55.7956C26.213 38.3402 40.3035 24.7755 58.1795 15.1014C76.2658 5.42728 96.3501 0.590243 118.432 0.590243C140.514 0.590243 160.388 5.42728 178.054 15.1014C195.93 24.7755 210.021 38.3402 220.326 55.7956C230.631 73.251 235.783 93.2301 235.783 115.733C235.783 138.236 230.631 158.215 220.326 175.67C210.021 192.915 195.93 206.375 178.054 216.049C160.388 225.723 140.514 230.56 118.432 230.56ZM118.432 186.396C131.051 186.396 142.512 183.557 152.817 177.878C163.333 171.99 171.64 163.788 177.739 153.273C183.837 142.547 186.887 130.034 186.887 115.733C186.887 101.642 183.837 89.3394 177.739 78.8241C171.85 68.0985 163.648 59.8966 153.133 54.2183C142.828 48.3297 131.261 45.3855 118.432 45.3855C105.393 45.3855 93.6161 48.3297 83.1008 54.2183C72.7958 59.8966 64.5938 68.0985 58.495 78.8241C52.3961 89.3394 49.3466 101.642 49.3466 115.733C49.3466 130.034 52.3961 142.547 58.495 153.273C64.5938 163.788 72.9009 171.99 83.4162 177.878C93.9316 183.557 105.604 186.396 118.432 186.396ZM365.969 230.56C343.887 230.56 323.803 225.723 305.716 216.049C287.84 206.375 273.75 192.915 263.445 175.67C253.14 158.215 247.987 138.236 247.987 115.733C247.987 93.2301 253.14 73.251 263.445 55.7956C273.75 38.3402 287.84 24.7755 305.716 15.1014C323.803 5.42728 343.887 0.590243 365.969 0.590243C388.051 0.590243 407.925 5.42728 425.591 15.1014C443.467 24.7755 457.557 38.3402 467.862 55.7956C478.167 73.251 483.32 93.2301 483.32 115.733C483.32 138.236 478.167 158.215 467.862 175.67C457.557 192.915 443.467 206.375 425.591 216.049C407.925 225.723 388.051 230.56 365.969 230.56ZM365.969 186.396C378.587 186.396 390.049 183.557 400.354 177.878C410.869 171.99 419.177 163.788 425.275 153.273C431.374 142.547 434.424 130.034 434.424 115.733C434.424 101.642 431.374 89.3394 425.275 78.8241C419.387 68.0985 411.185 59.8966 400.67 54.2183C390.365 48.3297 378.798 45.3855 365.969 45.3855C352.93 45.3855 341.153 48.3297 330.638 54.2183C320.333 59.8966 312.131 68.0985 306.032 78.8241C299.933 89.3394 296.884 101.642 296.884 115.733C296.884 130.034 299.933 142.547 306.032 153.273C312.131 163.788 320.438 171.99 330.953 177.878C341.468 183.557 353.14 186.396 365.969 186.396ZM503.374 5.32213H580.03C604.005 5.32213 624.931 9.73856 642.807 18.5714C660.683 27.4043 674.458 40.0227 684.132 56.4265C693.806 72.8304 698.643 92.1786 698.643 114.471C698.643 151.064 687.917 178.825 666.466 197.752C645.225 216.47 615.572 225.828 577.507 225.828H503.374V5.32213ZM580.03 185.765C602.533 185.765 619.778 179.456 631.766 166.837C643.753 154.219 649.747 136.763 649.747 114.471C649.747 101.222 647.118 89.3394 641.86 78.8241C636.603 68.3088 628.927 60.1069 618.832 54.2183C608.737 48.3297 596.855 45.3855 583.185 45.3855H551.324V185.765H580.03ZM780.251 5.32213H827.254L915.267 225.828H866.371L847.444 177.878H760.061L741.134 225.828H691.922L780.251 5.32213ZM834.825 139.708L803.595 55.7956L772.364 139.708H834.825ZM1039.58 5.32213H1147.78C1168.6 5.32213 1184.9 10.4746 1196.68 20.7796C1208.46 31.0846 1214.34 46.0164 1214.34 65.5748C1214.34 75.4592 1212.03 84.5024 1207.4 92.7043C1202.78 100.696 1196.47 106.9 1188.48 111.316C1199.41 115.312 1207.62 121.411 1213.08 129.613C1218.55 137.605 1221.28 148.12 1221.28 161.159C1221.28 174.408 1218.24 185.975 1212.14 195.859C1206.25 205.534 1198.05 212.999 1187.53 218.257C1177.23 223.304 1165.76 225.828 1153.15 225.828H1039.58V5.32213ZM1138.63 94.9126C1147.05 94.9126 1153.67 92.8095 1158.51 88.6034C1163.35 84.3972 1165.76 77.6675 1165.76 68.414C1165.76 58.3193 1163.35 51.3792 1158.51 47.5937C1153.88 43.8082 1146.73 41.9154 1137.06 41.9154H1087.53V94.9126H1138.63ZM1141.47 189.235C1151.78 189.235 1159.56 187.237 1164.82 183.241C1170.29 179.035 1173.02 171.779 1173.02 161.474C1173.02 150.959 1170.18 143.388 1164.5 138.761C1159.03 134.135 1150.83 131.821 1139.9 131.821H1087.53V189.235H1141.47ZM1345.49 230.56C1323.41 230.56 1303.33 225.723 1285.24 216.049C1267.37 206.375 1253.28 192.915 1242.97 175.67C1232.67 158.215 1227.51 138.236 1227.51 115.733C1227.51 93.2301 1232.67 73.251 1242.97 55.7956C1253.28 38.3402 1267.37 24.7755 1285.24 15.1014C1303.33 5.42728 1323.41 0.590243 1345.49 0.590243C1367.58 0.590243 1387.45 5.42728 1405.12 15.1014C1422.99 24.7755 1437.08 38.3402 1447.39 55.7956C1457.69 73.251 1462.85 93.2301 1462.85 115.733C1462.85 138.236 1457.69 158.215 1447.39 175.67C1437.08 192.915 1422.99 206.375 1405.12 216.049C1387.45 225.723 1367.58 230.56 1345.49 230.56ZM1345.49 186.396C1358.11 186.396 1369.57 183.557 1379.88 177.878C1390.4 171.99 1398.7 163.788 1404.8 153.273C1410.9 142.547 1413.95 130.034 1413.95 115.733C1413.95 101.642 1410.9 89.3394 1404.8 78.8241C1398.91 68.0985 1390.71 59.8966 1380.2 54.2183C1369.89 48.3297 1358.32 45.3855 1345.49 45.3855C1332.46 45.3855 1320.68 48.3297 1310.16 54.2183C1299.86 59.8966 1291.66 68.0985 1285.56 78.8241C1279.46 89.3394 1276.41 101.642 1276.41 115.733C1276.41 130.034 1279.46 142.547 1285.56 153.273C1291.66 163.788 1299.96 171.99 1310.48 177.878C1320.99 183.557 1332.67 186.396 1345.49 186.396ZM1482.9 5.32213H1529.59L1621.7 147.91V5.32213H1669.65V225.828H1623.28L1530.85 83.2406V225.828H1482.9V5.32213ZM1696.24 5.32213H1772.9C1796.87 5.32213 1817.8 9.73856 1835.67 18.5714C1853.55 27.4043 1867.32 40.0227 1877 56.4265C1886.67 72.8304 1891.51 92.1786 1891.51 114.471C1891.51 151.064 1880.78 178.825 1859.33 197.752C1838.09 216.47 1808.44 225.828 1770.37 225.828H1696.24V5.32213ZM1772.9 185.765C1795.4 185.765 1812.65 179.456 1824.63 166.837C1836.62 154.219 1842.61 136.763 1842.61 114.471C1842.61 101.222 1839.99 89.3394 1834.73 78.8241C1829.47 68.3088 1821.79 60.1069 1811.7 54.2183C1801.6 48.3297 1789.72 45.3855 1776.05 45.3855H1744.19V185.765H1772.9Z" fill="#2A2A2A"/>
</svg>
