<svg width="65" height="64" viewBox="0 0 65 64" fill="none" xmlns="http://www.w3.org/2000/svg">
<circle cx="32.2773" cy="32" r="30.5287" stroke="#939393" stroke-opacity="0.87" stroke-width="2.94253"/>
<g clip-path="url(#clip0_2287_3766)">
<path d="M17.1062 30.8366C25.3638 27.2397 30.8688 24.8684 33.6214 23.7225C41.4895 20.4509 43.1225 19.8827 44.189 19.8634C44.4235 19.8597 44.9457 19.9177 45.2864 20.1931C45.5696 20.4255 45.6493 20.7397 45.6891 20.9603C45.7245 21.1806 45.7732 21.6829 45.7334 22.075C45.3086 26.5534 43.4632 37.421 42.5251 42.4371C42.1312 44.5594 41.3479 45.271 40.5912 45.3405C38.945 45.4918 37.6971 44.2536 36.104 43.2097C33.6125 41.5755 32.2053 40.5585 29.7846 38.9641C26.9879 37.1214 28.8022 36.1085 30.3953 34.4534C30.8113 34.0202 38.0599 27.4287 38.1971 26.8308C38.2148 26.7561 38.2325 26.4773 38.0644 26.3303C37.9006 26.183 37.6572 26.2334 37.4802 26.2733C37.228 26.3299 33.2496 28.9621 25.5319 34.1693C24.4035 34.9455 23.3813 35.3239 22.4608 35.3039C21.4518 35.2823 19.5047 34.7322 18.0576 34.2622C16.2875 33.6856 14.8759 33.3807 14.9998 32.4014C15.0617 31.8916 15.7653 31.3699 17.1062 30.8366Z" fill="white"/>
</g>
<defs>
<clipPath id="clip0_2287_3766">
<rect width="56.6437" height="56.6437" fill="white" transform="translate(3.95703 3.67969)"/>
</clipPath>
</defs>
</svg>
