<svg width="84" height="64" viewBox="0 0 84 64" fill="none" xmlns="http://www.w3.org/2000/svg">
<g clip-path="url(#clip0_3169_47)">
<path d="M68.2769 54.1833V58.1973C68.2769 59.4598 68.2769 59.4441 67.0207 59.4704C66.616 59.4704 66.4689 59.3862 66.4951 58.9443C66.4951 56.3139 66.4951 53.7256 66.4951 51.1163C66.4951 50.7691 66.5897 50.6901 66.9524 50.6323C68.0036 50.4692 68.6291 50.8848 69.1336 51.8265C69.8695 53.2048 70.7735 54.4937 71.6092 55.8194C71.6565 55.8983 71.7143 55.9667 71.8404 56.1403C71.8404 55.8562 71.8825 55.6721 71.8825 55.4932C71.8825 54.0413 71.8825 52.5945 71.8825 51.1426C71.8825 50.7217 72.0139 50.6165 72.4081 50.6481C72.8023 50.6796 73.3384 50.4797 73.6012 50.7375C73.864 50.9953 73.6958 51.5476 73.7011 51.9632C73.7011 54.2832 73.7011 56.6032 73.7011 58.918C73.7011 59.3178 73.617 59.4756 73.1755 59.4441C71.7616 59.4441 71.7721 59.4441 71.0258 58.2446C70.1691 56.8663 69.2913 55.4985 68.3978 54.1254L68.2769 54.1833Z" fill="#03934D"/>
<path d="M81.6113 13.3425C81.1751 14.6525 80.7336 15.9729 80.3026 17.2723C80.2185 17.5196 80.1502 17.7037 79.8191 17.6932C79.4879 17.6827 79.4511 17.5196 79.3723 17.2829C78.9834 16.0834 78.5839 14.8892 78.1845 13.6898C78.1419 13.5366 78.0604 13.397 77.9479 13.2847C77.9479 14.6104 77.9479 15.9151 77.9479 17.2671C77.9479 17.5143 77.9479 17.7037 77.5958 17.6932C77.2436 17.6827 77.2279 17.5354 77.2331 17.2671C77.2331 15.6888 77.2331 14.158 77.2331 12.6008C77.2331 12.2746 77.2962 12.1378 77.6799 12.1168C78.2055 12.0852 78.4105 12.2641 78.5576 12.7639C78.9413 14.0685 79.3986 15.3574 79.8716 16.7883C80.229 15.7362 80.5444 14.784 80.8545 13.8476C81.0174 13.3741 81.1751 12.8954 81.3275 12.4167C81.4799 11.9379 81.9162 12.1747 82.221 12.1536C82.5259 12.1326 82.4155 12.4377 82.4155 12.5955C82.4155 14.1737 82.4155 15.7046 82.4155 17.2618C82.4155 17.5196 82.4155 17.6932 82.0581 17.6932C81.7007 17.6932 81.6954 17.5406 81.7007 17.2723C81.7007 15.9624 81.7007 14.642 81.7007 13.3425H81.6113Z" fill="#03934D"/>
<path d="M74.7517 15.2065C74.7517 15.8904 74.7517 16.5795 74.7517 17.2634C74.7517 17.5159 74.7517 17.6895 74.3995 17.6948C74.0474 17.7001 74.0263 17.5107 74.0316 17.2424C74.0316 15.9587 74.0316 14.6786 74.0316 13.402C74.0316 12.6497 74.0894 12.8023 73.4377 12.7865C73.1644 12.7865 72.8911 12.7865 72.6178 12.7865C72.4128 12.7865 72.2341 12.8128 72.2446 12.4972C72.2551 12.1815 72.3182 12.1289 72.6072 12.1289C73.7951 12.1289 74.9829 12.1289 76.1655 12.1289C76.4126 12.1289 76.5597 12.1657 76.5597 12.4709C76.5597 12.776 76.4126 12.7918 76.1918 12.7812C75.9711 12.7707 75.6662 12.7812 75.4139 12.7812C74.7517 12.7812 74.7517 12.7812 74.7517 13.4178V15.2012V15.2065Z" fill="#03934D"/>
<path d="M72.6071 62.7043C72.8331 62.2992 73.0328 61.9783 73.1905 61.6521C73.3482 61.3259 73.5689 61.3733 73.8002 61.4101C74.0314 61.4469 73.9368 61.6784 73.9368 61.8205C73.9368 62.5149 73.9368 63.2093 73.9368 63.9248C73.0854 63.5723 73.5689 62.8726 73.3639 62.2781C73.1852 62.5885 73.0381 62.8516 72.8751 63.1093C72.7122 63.3671 72.4914 63.3934 72.3075 63.1093C72.1627 62.8402 71.9863 62.5894 71.7819 62.3623C71.7819 62.6885 71.7819 63.0147 71.7819 63.3408C71.7819 63.5776 71.6873 63.6196 71.4823 63.6249C71.2773 63.6302 71.2458 63.5144 71.2458 63.3461C71.2458 62.82 71.2458 62.2939 71.2458 61.7679C71.2458 61.6311 71.1091 61.3996 71.3772 61.368C71.6452 61.3365 71.8502 61.2996 71.9869 61.61C72.1235 61.9204 72.3758 62.3045 72.6071 62.7043Z" fill="white"/>
<path d="M77.4907 62.4339C77.4907 62.7391 77.4907 63.0337 77.4907 63.3335C77.4907 63.5282 77.4907 63.6387 77.2279 63.6387C76.9651 63.6387 76.9598 63.5071 76.9598 63.3178C76.9598 62.7917 76.9598 62.2656 76.9598 61.7395C76.9598 61.6133 76.8705 61.4397 77.0492 61.3765C77.1359 61.3499 77.2288 61.3513 77.3147 61.3806C77.4006 61.4098 77.4751 61.4655 77.5275 61.5396C77.8428 61.9026 78.1792 62.2446 78.5366 62.6286C78.6575 62.1604 78.4736 61.7185 78.6523 61.3292C78.7206 61.1871 78.9256 61.1135 79.12 60.9609C79.12 61.8079 79.12 62.5813 79.12 63.3493C79.12 63.4388 79.1568 63.5492 79.0359 63.5861C78.9645 63.6118 78.8872 63.616 78.8134 63.5982C78.7396 63.5805 78.6726 63.5415 78.6207 63.4861C78.3579 63.2073 78.0951 62.9337 77.8323 62.6602C77.7535 62.5918 77.6957 62.4497 77.4907 62.4339Z" fill="white"/>
<path d="M40.7969 62.1211C41.0229 62.421 40.8547 62.7576 40.8862 63.0733C40.8862 63.1785 40.8022 63.2206 40.697 63.2259H40.4237H7.31117H7.03786C7.03091 63.2133 7.02675 63.1993 7.02567 63.185C7.02459 63.1707 7.02662 63.1563 7.03161 63.1428C7.03659 63.1293 7.04443 63.117 7.05458 63.1069C7.06473 63.0967 7.07696 63.0888 7.09042 63.0838C7.65792 62.9875 8.23448 62.9557 8.80912 62.9891C9.53444 62.9891 10.2598 62.9891 10.9851 62.9891C11.7104 62.9891 12.5619 62.9891 13.3713 62.9891C13.9968 63.0207 14.6222 62.9891 15.2424 62.9891H39.546C39.7299 62.9891 39.9139 62.9891 40.0716 62.9891C40.45 62.9891 40.6445 62.8471 40.6392 62.463C40.6564 62.3358 40.7114 62.2167 40.7969 62.1211Z" fill="white"/>
<path d="M49.281 63.0786C49.1233 63.6678 48.7554 63.6362 48.3297 63.6046C47.3258 63.6046 47.3258 63.6046 47.331 62.6051C47.3283 62.5595 47.3283 62.5139 47.331 62.4683C47.331 62.1053 47.1681 61.6161 47.4099 61.4162C47.6517 61.2162 48.1089 61.3583 48.4611 61.3478H49.3388C49.1917 61.7686 48.9656 61.9738 48.5452 61.9054C48.3932 61.8896 48.2399 61.8896 48.0879 61.9054C47.9775 61.9054 47.8304 61.8581 47.8409 62.0685C47.8514 62.2789 47.9933 62.2211 48.1089 62.2211H49.0655C48.9341 62.7471 48.582 62.6735 48.2456 62.6787C48.0879 62.6787 47.8251 62.5735 47.8461 62.8892C47.8671 63.2048 48.1089 63.0312 48.2508 63.0365C48.5977 63.0943 48.9289 63.0786 49.281 63.0786Z" fill="white"/>
<path d="M83.6663 62.2707C83.5086 62.7968 83.1407 62.7126 82.7938 62.7178C82.6466 62.7178 82.4206 62.6337 82.4364 62.923C82.4521 63.2124 82.6624 63.0756 82.7938 63.0808C83.1354 63.0808 83.4823 63.0808 83.8713 63.0808C83.7241 63.4859 83.5139 63.6858 83.0881 63.6069C82.6624 63.528 82.2261 63.7595 81.9896 63.5227C81.7531 63.286 81.916 62.7968 81.916 62.4232C81.916 61.3711 81.916 61.3711 82.9672 61.3711H83.9133C83.8134 62.0076 83.3562 61.8972 82.9357 61.934C82.778 61.934 82.4732 61.7657 82.4627 62.0708C82.4521 62.3759 82.7622 62.2286 82.9304 62.2444C83.1751 62.2662 83.4207 62.2749 83.6663 62.2707Z" fill="white"/>
<path d="M60.466 62.2707C60.3714 62.5758 60.2137 62.7389 59.9036 62.7178C59.7512 62.7178 59.5987 62.7178 59.4463 62.7178C59.2939 62.7178 59.2624 62.781 59.2624 62.9125C59.2624 63.044 59.3307 63.0966 59.4621 63.0966H60.692C60.5343 63.4544 60.3766 63.6858 59.9614 63.6227C59.5462 63.5596 59.0363 63.7542 58.8156 63.5543C58.5948 63.3544 58.7368 62.781 58.7315 62.3706C58.7315 61.3711 58.7315 61.3711 59.7459 61.3711H60.7288C60.6236 61.8972 60.2768 61.9445 59.851 61.934C59.6618 61.934 59.2939 61.7709 59.2939 62.0655C59.2939 62.3601 59.6671 62.2023 59.872 62.2444C60.0687 62.2718 60.2676 62.2807 60.466 62.2707Z" fill="white"/>
<path d="M53.7293 63.9107C53.619 63.5477 53.8397 63.1216 53.5033 62.7954C53.3562 62.6534 53.2721 62.5587 53.1354 62.7954C52.9987 63.0322 52.7517 63.1427 52.7675 63.453C52.7833 63.7634 52.5783 63.6319 52.4364 63.6424C52.2944 63.653 52.2314 63.5688 52.2366 63.4215C52.2366 62.8165 52.2366 62.2062 52.2366 61.596C52.2366 61.375 52.3733 61.4066 52.5099 61.4013C52.6466 61.3961 52.7833 61.4013 52.778 61.6118C52.7727 61.8222 52.778 62.0958 52.778 62.3693C53.3036 62.1063 53.3929 61.212 54.1971 61.4224C54.1971 61.4224 54.1971 61.4855 54.1971 61.4908C53.6715 61.9432 53.6032 62.3588 54.134 62.9007C54.4652 63.2216 54.2549 63.6582 53.7293 63.9107Z" fill="white"/>
<path d="M3.85447 63.2101C2.80327 63.2101 1.75208 63.2101 0.664099 63.2101C0.56782 63.2196 0.470654 63.2059 0.38077 63.1701C0.290886 63.1342 0.21091 63.0773 0.147564 63.0041C0.0842175 62.9309 0.0393528 62.8436 0.0167401 62.7494C-0.00587262 62.6553 -0.00557192 62.5571 0.0176162 62.463C0.049152 62.2053 0.23311 62.1211 0.474884 62.1211H2.50368C2.5944 62.2046 2.65064 62.3191 2.66136 62.442C2.66136 62.9681 2.97147 63.0259 3.38669 63.0049C3.55488 62.9944 3.77563 62.947 3.85447 63.2101Z" fill="white"/>
<path d="M10.9921 63.1179H8.81083C8.71508 62.8936 8.69659 62.6437 8.75827 62.4077C8.54803 62.4077 8.31677 62.4866 8.13281 62.2236C8.65841 62.0868 9.184 62.2552 9.7096 62.1236C11.1129 62.0868 12.5163 62.071 13.9144 62.1236C13.9219 62.1356 13.9269 62.1491 13.9292 62.1631C13.9314 62.1771 13.9308 62.1914 13.9273 62.2051C13.9239 62.2189 13.9177 62.2318 13.9092 62.2431C13.9006 62.2544 13.8899 62.2639 13.8776 62.2709C13.2438 62.3577 12.6032 62.3841 11.9644 62.3499C11.5267 62.2641 11.0797 62.2358 10.6347 62.2657C10.8869 62.2657 11.1602 62.2657 11.3915 62.2657C11.6228 62.2657 11.6648 62.3551 11.5965 62.5655C11.5511 62.7015 11.4717 62.8236 11.3659 62.9203C11.2602 63.017 11.1315 63.085 10.9921 63.1179Z" fill="white"/>
<path d="M65.5761 62.2629C65.4447 62.7522 65.1031 62.7417 64.7667 62.7048C64.4303 62.668 64.3041 62.7943 64.3409 63.1415C64.3569 63.406 64.3569 63.6713 64.3409 63.9359C64.1737 63.8979 64.0268 63.7984 63.9294 63.6571C63.832 63.5158 63.7913 63.343 63.8153 63.173C63.8521 62.647 63.8153 62.1682 63.8153 61.6685C63.8153 61.4633 63.8679 61.3739 64.0939 61.3791C64.6668 61.3791 65.245 61.3791 65.8441 61.3791C65.7022 61.7947 65.4657 61.9999 65.0347 61.9368C64.8685 61.9236 64.7016 61.9236 64.5354 61.9368C64.4355 61.9368 64.3462 61.9368 64.3409 62.0735C64.3357 62.2103 64.4093 62.2629 64.5354 62.2629H65.5761Z" fill="white"/>
<path d="M13.9043 62.2066C13.9071 62.1769 13.9071 62.1469 13.9043 62.1172C14.6349 62.1172 15.3655 62.1172 16.096 62.1172C24.1797 62.1172 32.2616 62.1172 40.3418 62.1172C40.4889 62.1172 40.6414 62.1172 40.7938 62.1172V62.3855C32.2161 62.3171 23.6383 62.3855 15.0659 62.3487C14.6735 62.4268 14.2664 62.3771 13.9043 62.2066Z" fill="white"/>
<path d="M3.85423 63.2101C3.56976 63.1081 3.26393 63.081 2.96597 63.1312C2.68215 63.1312 2.54549 63.0575 2.56126 62.7471C2.55293 62.5366 2.52655 62.3271 2.48242 62.1211H4.67416C4.69168 62.1465 4.70417 62.1751 4.71095 62.2053C4.88965 62.9996 4.88965 62.9944 5.73586 62.9996C6.05648 62.9996 6.37709 62.9996 6.69245 62.9996C6.7571 62.9953 6.82194 63.0048 6.88265 63.0275C6.94336 63.0502 6.99856 63.0855 7.04459 63.1312V63.2048L3.85423 63.2101Z" fill="white"/>
<path d="M81.5419 61.4255C81.3895 61.9516 81.0163 61.9884 80.5959 61.9516C80.1754 61.9148 79.9651 62.0147 80.0703 62.4777C80.086 62.584 80.086 62.6922 80.0703 62.7986C80.0387 63.0353 80.1333 63.1247 80.3751 63.1089C80.7325 63.1089 81.0952 63.1089 81.4999 63.1089C81.3527 63.493 81.174 63.7087 80.743 63.635C80.312 63.5614 79.8916 63.7455 79.6498 63.2299C79.4906 62.7096 79.5242 62.1493 79.7444 61.6517C79.7957 61.5687 79.8691 61.5015 79.9563 61.4579C80.0436 61.4142 80.1413 61.3957 80.2384 61.4045C80.6484 61.4045 81.0584 61.4045 81.4683 61.4045C81.4934 61.4094 81.518 61.4164 81.5419 61.4255Z" fill="white"/>
<path d="M6.7072 63.1284C6.11853 63.1284 5.52461 63.1284 4.93594 63.1284C4.71519 63.1284 4.57854 63.1285 4.68366 62.8233C4.78878 62.5182 4.50495 62.3604 4.68366 62.1289H7.15396C7.08037 62.4182 6.85437 62.292 6.71771 62.2973C6.77623 62.3498 6.82283 62.4143 6.85441 62.4864C6.88599 62.5585 6.90181 62.6365 6.90082 62.7152C6.89982 62.7939 6.88203 62.8715 6.84864 62.9428C6.81525 63.0141 6.76702 63.0774 6.7072 63.1284Z" fill="white"/>
<path d="M6.70821 63.1282C6.7923 62.8388 6.8764 62.5495 6.65039 62.297C6.81858 62.1392 7.04459 62.297 7.17599 62.1234C8.02745 62.1234 8.88417 62.0655 9.73564 62.1234C9.2626 62.3285 8.75803 62.1234 8.27974 62.2865H9.07339C8.63714 62.5285 9.07339 62.8862 8.83161 63.1177H7.07612L6.70821 63.1282Z" fill="white"/>
<path d="M42.0931 61.7807C42.8658 61.6018 43.302 62.1542 43.8066 62.5698C43.9853 62.7119 43.8381 62.7697 43.7593 62.8381C43.4965 63.0696 43.2337 63.2958 42.9709 63.5168C42.7081 63.7377 42.1825 63.6377 42.0879 63.4326C42.1927 63.2469 42.3451 63.0925 42.5294 62.9854C42.8185 62.7855 42.8553 62.6329 42.5294 62.4067C42.3349 62.2331 42.1037 62.07 42.0931 61.7807Z" fill="white"/>
<path d="M41.5817 62.675C41.5901 62.8253 41.5759 62.976 41.5396 63.1222C41.4765 63.2747 41.2976 63.1853 41.1714 63.1958C41.0451 63.2063 40.9873 63.1221 40.9925 62.9959C40.9978 62.8696 40.9925 62.6329 40.9925 62.4698C40.9925 62.3067 40.9925 62.1016 41.2819 62.1016C41.5712 62.1016 41.5975 62.2489 41.5817 62.4646C41.5765 62.5119 41.5817 62.5698 41.5817 62.675Z" fill="white"/>
<path d="M41.7174 62.1212C42.1173 62.0002 42.2803 62.1632 42.2435 62.5631C42.2435 62.784 42.3435 63.0523 42.0857 63.2207C41.8121 63.247 41.6701 63.1523 41.7069 62.8471C41.7437 62.542 41.7122 62.3631 41.7174 62.1212Z" fill="white"/>
<path d="M41.2491 0.0213845C41.5734 0.0640849 41.8868 0.169972 42.17 0.333884C42.6076 0.581501 42.962 0.954549 43.1876 1.4042C43.4129 1.85372 43.4995 2.36029 43.4366 2.85928C43.4049 3.35074 43.2232 3.82045 42.917 4.20596C42.6108 4.59149 42.194 4.8748 41.7227 5.0165C41.4865 5.09538 41.4187 5.18438 41.5342 5.40517C43.4106 9.0403 45.4756 12.5496 48.3663 15.5009C49.0036 16.1323 49.6914 16.7108 50.4219 17.2313C50.6685 17.4052 50.9512 17.5208 51.2491 17.5683C51.547 17.6157 51.8523 17.5935 52.1407 17.5048C54.076 17.039 55.81 15.9617 57.086 14.4325C57.1437 14.3694 57.1964 14.2905 57.2647 14.2274C57.7902 13.7435 58.1264 13.3174 57.6534 12.5126C57.4584 12.1719 57.3917 11.7724 57.4649 11.3866C57.5382 11.0008 57.7465 10.6535 58.0528 10.4081C58.3326 10.1221 58.6952 9.9311 59.0889 9.86123C59.4828 9.79143 59.889 9.84696 60.2501 10.0194C60.4385 10.1197 60.6041 10.2582 60.7354 10.4267C60.8667 10.5953 60.9616 10.7904 61.0127 10.9979C61.2309 11.5087 61.238 12.0851 61.0333 12.6015C60.8284 13.1179 60.4279 13.5328 59.919 13.7548C59.7195 13.8494 59.6244 13.9493 59.6612 14.1649C60.0344 16.4165 60.8761 18.4473 62.5948 20.0097C63.452 20.7146 64.3718 21.3397 65.3428 21.8769C66.4255 22.5292 67.5089 23.1759 68.5811 23.8388C68.842 23.9944 69.1161 24.1265 69.4004 24.2333C69.8155 24.3963 69.9268 24.3127 69.8848 23.8554C69.8595 23.5985 69.8469 23.3401 69.8477 23.0819C69.8323 22.6973 69.9583 22.3198 70.2012 22.0214C70.4442 21.7231 70.7877 21.5244 71.167 21.4618C71.5338 21.3751 71.9193 21.4163 72.2588 21.58C72.5985 21.7437 72.8713 22.02 73.0323 22.3612C73.1877 22.7124 73.2241 23.1049 73.1348 23.4784C73.0455 23.8519 72.8364 24.1859 72.5391 24.4286C72.1975 24.6496 71.9485 24.9884 71.8399 25.3808C71.7137 25.8489 71.23 26.2279 70.8936 26.6435C69.2713 28.632 67.6436 30.6207 66.0108 32.6093C65.8639 32.8025 65.7552 33.0218 65.6905 33.2558C65.2227 34.7709 64.7389 36.2811 64.2764 37.7909C64.2632 37.8952 64.2096 37.9906 64.127 38.0556C64.0444 38.1205 63.9394 38.1494 63.835 38.1376C63.3883 38.1204 62.9487 38.2581 62.5909 38.5263C62.2332 38.7944 61.9785 39.1775 61.8692 39.6112C61.6806 40.1283 61.5959 40.6776 61.6211 41.2274C61.6464 41.7774 61.7814 42.3168 62.0167 42.8144C62.1427 43.0773 62.074 43.1458 61.8272 43.2089C61.5931 43.2781 61.3672 43.3736 61.1544 43.4931C61.0182 43.5459 60.896 43.6298 60.7969 43.7372C60.698 43.8446 60.6247 43.9732 60.5831 44.1132C60.5415 44.2534 60.5323 44.4016 60.5567 44.5458C60.581 44.69 60.6384 44.8265 60.7237 44.9452C61.0066 45.458 61.4523 45.8622 61.9903 46.0927C62.1788 46.1514 62.338 46.2793 62.4356 46.4511C62.5332 46.623 62.5619 46.8262 62.5157 47.0185C62.4772 47.4293 62.4646 47.8424 62.4786 48.2548C62.4785 48.4913 62.3995 48.5965 62.1631 48.5702C62.0704 48.565 61.9775 48.565 61.8848 48.5702L41.0713 48.5751H20.2208C19.8215 48.5751 19.6062 48.5017 19.6954 48.0497C19.7059 47.9731 19.7058 47.8949 19.6954 47.8183C19.5903 46.903 19.6426 46.0869 20.7461 45.7606C21.0667 45.666 21.2721 45.34 21.4297 45.0507C21.9238 44.2511 21.6452 43.5727 20.7413 43.3622C20.0949 43.2097 20.1163 43.2147 20.2686 42.5575C20.4644 41.7259 20.5299 40.8683 20.4629 40.0165C20.3785 39.5574 20.1565 39.1342 19.8272 38.8036C19.498 38.4732 19.0765 38.2499 18.6182 38.164C18.4431 38.147 18.2776 38.0737 18.1485 37.954C18.0195 37.8344 17.9337 37.6752 17.9034 37.5019C17.5039 36.1288 17.0458 34.7706 16.5938 33.4081C16.3362 32.6193 15.7164 32.0616 15.212 31.4462C13.6352 29.5366 12.0583 27.6639 10.4815 25.7753C10.4132 25.6965 10.2877 25.6018 10.2979 25.5282C10.3767 24.9391 9.90321 24.8076 9.56158 24.5341C9.28924 24.3454 9.08124 24.0775 8.96392 23.7675C8.8467 23.4576 8.82533 23.1195 8.90435 22.7978C8.96564 22.4489 9.13212 22.1268 9.38091 21.8749C9.62978 21.623 9.95001 21.4529 10.2979 21.3876C10.5179 21.3582 10.7418 21.3728 10.9561 21.4306C11.1704 21.4883 11.3715 21.5885 11.5469 21.7245C11.7223 21.8605 11.8691 22.0304 11.9786 22.2235C12.088 22.4167 12.1581 22.63 12.1846 22.8505V23.6288C12.1846 24.1549 12.3054 24.2757 12.8467 24.1073C13.5712 23.836 14.2626 23.4834 14.9073 23.0556C16.2475 22.2717 17.5774 21.4771 18.8545 20.5985C20.4483 19.4491 21.6065 17.7927 22.1397 15.9003C22.311 15.3633 22.4359 14.8122 22.5127 14.2538C22.5319 14.2005 22.5396 14.1433 22.5352 14.0868C22.5307 14.0303 22.5137 13.9754 22.4864 13.9257C22.459 13.876 22.4214 13.8328 22.376 13.7987C22.3307 13.7648 22.2789 13.7408 22.2237 13.7284C21.9483 13.6053 21.7023 13.4237 21.503 13.1972C21.3038 12.9707 21.1556 12.7038 21.0684 12.4149C20.9813 12.1262 20.9566 11.8222 20.9971 11.5233C21.0377 11.2244 21.1427 10.9376 21.3038 10.6825C21.4638 10.447 21.6746 10.2499 21.921 10.1073C22.1675 9.9647 22.4437 9.87954 22.7276 9.8583C23.0114 9.83712 23.2967 9.87995 23.5616 9.98427C23.8264 10.0886 24.0646 10.2517 24.2579 10.4608C24.9358 11.2656 25.1142 12.4652 24.2579 13.1649C24.0897 13.307 24.1633 13.4332 24.2579 13.5595C25.9345 15.5532 27.842 17.2003 30.5645 17.6054C30.7215 17.63 30.8822 17.6186 31.0342 17.5722C31.1863 17.5257 31.3259 17.4451 31.4424 17.3368C32.7551 16.1809 33.9746 14.9228 35.0899 13.5751C37.0737 11.1639 38.7168 8.49115 39.9727 5.63174C40.1462 5.25822 40.2193 5.04734 39.7305 4.79482C39.432 4.62832 39.1696 4.40402 38.959 4.13467C38.7484 3.86512 38.5936 3.55574 38.504 3.22549C38.4144 2.89519 38.392 2.55004 38.4376 2.21084C38.4831 1.87159 38.596 1.54484 38.7696 1.2499C38.9324 0.965926 39.1491 0.716277 39.4083 0.516502C39.6674 0.316753 39.9635 0.169905 40.2793 0.084861C40.5952 -0.000146873 40.9248 -0.0212542 41.2491 0.0213845ZM21.1622 21.3134C20.5893 21.2555 20.0005 21.0614 19.4434 21.4452C17.9998 22.4517 16.5434 23.4456 15.0752 24.4276C14.9821 24.4743 14.9101 24.5548 14.8731 24.6522C14.8361 24.7497 14.8374 24.8573 14.876 24.954C15.4857 27.2582 16.0917 29.5591 16.6944 31.8563C16.7506 32.1083 16.8897 32.334 17.0889 32.4979C17.688 32.9924 18.2819 33.4768 18.8653 34.0028C18.9592 34.0891 19.0696 34.1558 19.1895 34.1991C19.3093 34.2423 19.4364 34.2611 19.5635 34.2548H22.9434V34.3231H26.4649C26.6698 34.3231 26.8439 34.3238 26.9385 34.0819C27.2854 33.2192 27.6478 32.3667 28.0157 31.5145C28.0641 31.4203 28.0825 31.313 28.0694 31.2079C28.0562 31.103 28.0124 31.0039 27.9424 30.9247C27.4169 30.1831 26.8908 29.4314 26.3653 28.6845L21.4776 21.6815C21.3831 21.5501 21.2776 21.3138 21.1622 21.3134ZM61.5167 21.1239C61.3845 21.1045 61.2493 21.1246 61.128 21.1806C61.0067 21.2366 60.9041 21.327 60.8331 21.4403C58.6782 24.516 56.5129 27.5847 54.337 30.6464C54.2453 30.7453 54.1892 30.8723 54.1778 31.0067C54.1664 31.141 54.1999 31.2757 54.2735 31.3886C54.6992 32.1934 55.1252 33.009 55.5088 33.8349C55.5529 33.9587 55.6396 34.0634 55.753 34.1298C55.8664 34.196 55.9996 34.2196 56.129 34.1972H59.419L59.4034 34.1503H62.7413C63.016 34.1603 63.284 34.0621 63.4874 33.8769C63.9498 33.4666 64.4225 33.0557 64.9112 32.6718C65.1943 32.465 65.3929 32.1617 65.4688 31.8192C66.0207 29.5309 66.5723 27.2371 67.1504 24.954C67.2024 24.8249 67.2049 24.6811 67.1563 24.5507C67.1077 24.4202 67.0116 24.3124 66.8877 24.2489C65.5949 23.3757 64.3067 22.5133 63.0401 21.619C62.5931 21.3054 62.0625 21.1324 61.5167 21.1239ZM45.7081 17.7216C45.5417 17.6957 45.3711 17.7364 45.2344 17.8349C45.0981 17.9332 45.006 18.0812 44.9776 18.247C43.8633 21.7401 42.7223 25.2288 41.587 28.7167C41.5408 28.8207 41.5253 28.9361 41.542 29.0487C41.5588 29.1612 41.6073 29.2664 41.6817 29.3524C42.2139 30.0025 42.6121 30.7525 42.8536 31.5575C43.0069 32.1457 43.2025 32.7226 43.4376 33.2831C43.5268 33.4564 43.6055 33.5769 43.8311 33.577H46.1651C46.4068 33.5823 46.4747 33.4823 46.4747 33.2509C46.4747 32.8248 46.4642 32.3828 46.4747 31.9726C46.4851 31.5624 46.2754 31.0679 46.543 30.7733C46.8111 30.4787 47.353 30.6787 47.7735 30.6366H48.0049C48.2938 30.5841 48.4092 30.6844 48.4092 30.9999C48.4092 31.7468 48.4512 32.4884 48.4512 33.2353C48.4512 33.5246 48.5621 33.5829 48.8301 33.5829H51.71C51.8279 33.5988 51.9477 33.5737 52.0499 33.5126C52.152 33.4515 52.2307 33.3575 52.2725 33.246C52.569 32.5425 52.9201 31.8629 53.3233 31.2147C53.3977 31.1001 53.4397 30.9675 53.4444 30.831C53.574 27.4045 53.702 23.9781 53.8282 20.5517C53.8421 20.4522 53.8289 20.3503 53.7901 20.2577C53.7512 20.1653 53.6881 20.0849 53.6075 20.0253C52.8822 19.4256 52.1987 18.7999 51.5049 18.1845C51.3798 18.0528 51.2289 17.9484 51.0616 17.8778C50.8943 17.8072 50.7138 17.7721 50.5323 17.7743H48.0206L48.0362 17.7216H45.7081ZM34.3077 17.7938C33.3637 17.7518 32.4181 17.7578 31.4747 17.8104C31.2474 17.815 31.0289 17.9001 30.8594 18.0517C30.1096 18.718 29.3513 19.3742 28.584 20.0194C28.5048 20.081 28.4417 20.1613 28.4004 20.2528C28.3592 20.3445 28.3412 20.4454 28.3477 20.5458C28.3898 21.2612 28.4317 21.9769 28.4317 22.6923L28.7315 30.7411C28.7149 30.8856 28.7401 31.0318 28.8047 31.162C29.2361 31.8273 29.6041 32.5321 29.9034 33.2665C29.9357 33.364 30.0015 33.447 30.0889 33.5009C30.1764 33.5546 30.2804 33.5756 30.3819 33.5604H33.3038C33.5823 33.5657 33.6817 33.4867 33.6817 33.2079C33.687 32.4612 33.7344 31.7144 33.7344 30.9677C33.7344 30.7047 33.7978 30.5724 34.0918 30.5985C34.4864 30.6388 34.8839 30.6538 35.2803 30.6415C35.6164 30.6258 35.6797 30.7675 35.6797 31.0673V33.1718C35.6745 33.4609 35.7584 33.5712 36.0684 33.5712H37.3926C38.7644 33.5712 38.7754 33.5713 39.1065 32.2245C39.3063 31.2853 39.7001 30.3978 40.2627 29.62C40.4105 29.4438 40.5055 29.2289 40.5362 29.0009C40.5668 28.7728 40.5316 28.541 40.4356 28.3319C39.3213 24.9703 38.2387 21.5922 37.1612 18.2147C37.0771 17.9205 36.951 17.7938 36.6358 17.7938H34.3077Z" fill="#03934D"/>
<path d="M46.4809 50.6446C47.9104 50.6761 49.3453 50.6451 50.7748 50.6924C51.1651 50.6808 51.5524 50.7679 51.8998 50.9463C52.2472 51.1248 52.544 51.3888 52.7621 51.7129C53.0621 52.1478 53.1877 52.6799 53.1137 53.2031C53.0397 53.7264 52.7714 54.2026 52.3627 54.5371C52.2629 54.6055 52.1472 54.6427 52.1313 54.7949C52.4278 54.9088 52.6966 55.0849 52.9203 55.3106C53.1441 55.5364 53.3177 55.8076 53.4291 56.1055C53.5495 56.4543 53.5903 56.8258 53.5483 57.1924C53.5062 57.5588 53.383 57.9113 53.1869 58.2237C52.9908 58.5361 52.7263 58.8011 52.4145 58.9981C52.1029 59.1948 51.7511 59.3186 51.3852 59.3614C49.6875 59.556 47.9787 59.4356 46.2758 59.4619C46.0394 59.4619 45.9971 59.3353 46.0024 59.1406V51.1387C46.0024 50.7708 46.0921 50.613 46.4809 50.6446ZM48.1694 55.6739C47.9539 55.6686 47.9223 55.7743 47.9223 55.9531V57.5313C47.9118 57.7941 48.033 57.8252 48.2485 57.8252H49.3461L49.3412 57.7891C49.7669 57.7891 50.1933 57.8259 50.6137 57.7891C50.8685 57.7808 51.1101 57.6735 51.2875 57.4903C51.465 57.3067 51.565 57.0602 51.5649 56.8047C51.581 56.548 51.4968 56.2948 51.3305 56.0987C51.1639 55.9025 50.9273 55.7784 50.6713 55.753C49.8401 55.6714 49.0041 55.6449 48.1694 55.6739ZM48.2533 52.2549C47.98 52.2496 47.9272 52.3651 47.9272 52.6123V53.835C47.9374 54.0088 48.0203 54.0693 48.2319 54.0694H49.2358V54.0479H50.3783C50.4696 54.0434 50.5599 54.0252 50.6459 53.9932C50.7605 53.9505 50.8654 53.8846 50.9535 53.7998C51.0416 53.715 51.1115 53.6129 51.1586 53.5C51.2057 53.3872 51.2295 53.2659 51.228 53.1436C51.2227 52.6228 50.9912 52.3492 50.308 52.3018C49.6249 52.2544 48.9365 52.2549 48.2533 52.2549Z" fill="#03934D"/>
<path d="M16.1336 50.5272C16.9319 50.5489 17.7049 50.8164 18.3455 51.2938C18.9859 51.7711 19.463 52.4351 19.7127 53.1942C19.9117 53.7629 19.9957 54.3661 19.9597 54.9676C19.9597 56.493 19.6181 57.7656 18.4724 58.6493C17.8084 59.1618 17.0188 59.4859 16.1863 59.5868C15.3538 59.6877 14.5091 59.5626 13.742 59.2235C12.118 58.6132 11.3931 57.2815 11.2722 55.6034C11.1763 54.7348 11.2843 53.8554 11.5877 53.036C12.3656 51.132 14.0105 50.3379 16.1336 50.5272ZM15.9138 52.1844C15.3829 52.0921 14.8359 52.1958 14.3757 52.4764C13.9158 52.7571 13.5733 53.1954 13.4119 53.7098C13.1084 54.614 13.1272 55.5952 13.4646 56.4872C13.5949 56.8643 13.8296 57.1965 14.1414 57.4452C14.4531 57.6939 14.829 57.8485 15.2254 57.8915C15.6382 57.9759 16.0666 57.9409 16.4597 57.7889C16.8529 57.6369 17.1942 57.3744 17.4431 57.0341C17.8428 56.4344 18.0279 55.7172 17.9685 54.9989C17.958 54.7727 17.9534 54.5405 17.9324 54.288C17.9012 53.7544 17.6801 53.2497 17.3103 52.8641C16.9404 52.4785 16.4453 52.2374 15.9138 52.1844Z" fill="#03934D"/>
<path d="M57.3135 51.1853C58.2945 50.5752 59.4649 50.346 60.6035 50.5398C61.742 50.7336 62.7708 51.3377 63.4951 52.238C64.5461 53.7374 64.6244 57.1091 62.8428 58.5505C62.1601 59.109 61.3338 59.4641 60.459 59.5739C59.5844 59.6837 58.6966 59.5439 57.8975 59.1716C56.2523 58.5193 55.5742 57.1194 55.5059 55.3991V54.7644C55.538 53.3108 56.0422 52.0582 57.3135 51.1853ZM60.1367 52.1921C59.6021 52.1301 59.0621 52.2553 58.6094 52.5466C58.1567 52.8379 57.819 53.2773 57.6533 53.7898C57.3847 54.6489 57.4033 55.572 57.7061 56.4196C57.8402 56.7936 58.0685 57.1269 58.3691 57.3864C58.6698 57.6459 59.0326 57.8233 59.4219 57.9011C59.811 57.9788 60.2138 57.9547 60.5908 57.8308C60.968 57.7068 61.3068 57.4868 61.5742 57.1931C62.0666 56.5817 62.3025 55.8023 62.2314 55.0202C62.2157 54.7731 62.2157 54.5308 62.1895 54.3152C62.1452 53.7784 61.9161 53.2735 61.542 52.8864C61.1679 52.4993 60.6712 52.2542 60.1367 52.1921Z" fill="#03934D"/>
<path d="M4.97441 50.457C5.79445 50.4571 6.60049 50.6703 7.31328 51.0762C8.74813 51.8495 9.29977 53.1806 9.35234 54.7588C9.44131 55.766 9.22358 56.7765 8.72734 57.6572C8.34407 58.2793 7.79897 58.7859 7.15117 59.123C6.50341 59.4601 5.77645 59.6155 5.04765 59.5723C2.94538 59.6038 1.42099 58.5987 0.811324 56.7207C0.660137 56.1803 0.596919 55.6191 0.622847 55.0586C0.622865 53.3804 1.11134 51.9021 2.63554 51.0762C3.34833 50.6704 4.15439 50.457 4.97441 50.457ZM5.0623 52.167C4.49458 52.1393 3.9361 52.3207 3.49199 52.6758C3.04806 53.0308 2.74864 53.5356 2.65019 54.0957C2.54244 54.6817 2.54244 55.2831 2.65019 55.8691C2.70606 56.4115 2.95423 56.9157 3.34941 57.291C3.74468 57.6664 4.26128 57.8877 4.80546 57.915C5.37235 57.9758 5.94127 57.8155 6.39335 57.4678C6.8452 57.12 7.14591 56.6116 7.2332 56.0479C7.30289 55.7171 7.34355 55.3808 7.35429 55.043C7.34378 54.8115 7.34351 54.5642 7.27519 54.3223C7.23182 53.755 6.98337 53.2229 6.57597 52.8262C6.16852 52.4294 5.63008 52.1948 5.0623 52.167Z" fill="#03934D"/>
<path d="M80.3175 50.6178C81.108 50.5766 81.8877 50.8183 82.5158 51.3004C83.1437 51.7824 83.579 52.4731 83.7443 53.2477C84.0834 54.3945 84.0834 55.6155 83.7443 56.7623C83.2187 58.4878 82.0466 59.3396 80.2228 59.3922H76.8439C76.4918 59.3922 76.37 59.298 76.3752 58.9352C76.3909 57.699 76.3804 56.3837 76.3752 55.0739V51.1442C76.3752 50.7812 76.4497 50.6178 76.8439 50.6178H80.3175ZM78.6457 52.2643C78.3882 52.2485 78.3147 52.3486 78.3146 52.6061V57.4723C78.3094 57.7353 78.3881 57.8092 78.6457 57.8092H80.2912C80.6066 57.8231 80.9178 57.7329 81.1769 57.5524C81.4361 57.3718 81.6292 57.1111 81.7257 56.8102C82.0713 55.7291 82.0843 54.5686 81.7629 53.4801C81.6856 53.1659 81.5088 52.8848 81.2599 52.6784C81.0111 52.4719 80.7028 52.3503 80.38 52.3326C79.8072 52.2643 79.2238 52.2958 78.6457 52.2643Z" fill="#03934D"/>
<path d="M25.9199 50.6447C28.0958 50.6763 29.3366 51.7337 29.6836 53.8957C29.896 54.9948 29.8067 56.1312 29.4258 57.1838C28.8319 58.7041 27.6542 59.3727 26.0879 59.4201C24.958 59.4569 23.8331 59.4198 22.7031 59.4513C22.3038 59.4513 22.1777 59.3405 22.1777 58.925V54.9426L22.1934 54.9797V51.092C22.1934 50.7553 22.283 50.6394 22.6299 50.6447H25.9199ZM24.707 52.2707C24.276 52.2128 24.1183 52.3341 24.1445 52.797C24.176 53.5387 24.1445 54.2855 24.1445 55.0324L24.1758 55.0217V57.4474C24.1654 57.747 24.2707 57.8205 24.5596 57.8205H26.0684C26.449 57.8331 26.8211 57.704 27.1123 57.4582C27.4034 57.2124 27.5927 56.8671 27.6445 56.4894C27.8326 55.6387 27.8507 54.7592 27.6973 53.9015C27.6662 53.4611 27.4654 53.0496 27.1367 52.7551C26.8081 52.4605 26.3774 52.3059 25.9365 52.3234C25.5267 52.2708 25.1379 52.3285 24.707 52.2707Z" fill="#03934D"/>
<path d="M36.1391 50.6628C36.3011 50.6331 36.4686 50.6673 36.6059 50.7585C36.7431 50.8498 36.84 50.991 36.8754 51.1521C37.7847 53.4142 38.7144 55.6608 39.6342 57.9177C39.8024 58.3227 39.9608 58.7386 40.1606 59.1384C40.2863 59.4168 40.1964 59.4901 39.9233 59.4743C39.6502 59.4586 39.4452 59.4538 39.2035 59.4538C38.1945 59.4538 38.1941 59.4532 37.8315 58.5378C37.4112 57.4862 37.4112 57.486 36.2553 57.486H34.3363C34.2173 57.4663 34.0949 57.4942 33.9965 57.5642C33.8982 57.6341 33.8316 57.7402 33.8109 57.8591C33.6638 58.3063 33.4689 58.7381 33.3217 59.1853C33.3135 59.2332 33.2961 59.279 33.2699 59.32C33.2436 59.3611 33.2096 59.397 33.1693 59.4245C33.1291 59.452 33.0833 59.4706 33.0356 59.4802C32.9879 59.4897 32.9386 59.49 32.891 59.4802H31.6557C31.246 59.4801 31.1781 59.3747 31.3305 59.0065C31.8035 57.8492 32.2605 56.6864 32.7231 55.529C33.3222 54.0297 33.9316 52.5355 34.515 51.031C34.5404 50.9147 34.6091 50.8121 34.7065 50.7439C34.8037 50.6759 34.9229 50.647 35.0404 50.6628C35.4059 50.6917 35.7736 50.6917 36.1391 50.6628ZM34.6801 55.5866C34.5802 55.8707 34.7167 55.8708 34.9164 55.8708H36.4193C36.6611 55.8761 36.7561 55.7919 36.6615 55.5446C36.3462 54.724 36.0359 53.903 35.6733 52.9509C35.3107 53.9134 35.0006 54.7503 34.6801 55.5866Z" fill="#03934D"/>
<path d="M69.9746 61.4102C70.6472 61.4102 70.9047 61.8098 70.6474 62.4619C70.6107 62.5461 70.5581 62.6359 70.6474 62.7148C70.9575 63.0304 70.7523 63.4724 70.831 63.9668C70.4895 63.767 70.2163 63.6405 70.3056 63.2461C70.3476 62.9937 70.2161 62.8836 69.9639 62.8994C69.8118 62.9125 69.6589 62.9125 69.5068 62.8994C69.2126 62.8626 69.1287 62.9936 69.1601 63.2617C69.1917 63.53 69.1913 63.6511 68.876 63.6406C68.561 63.6301 68.6395 63.4306 68.6396 63.2676V61.6895C68.6396 61.496 68.692 61.4192 68.8496 61.4102H69.9746ZM69.3398 61.9307C69.1928 61.9255 69.1197 61.9839 69.125 62.1416C69.1303 62.2991 69.2035 62.3408 69.3506 62.3408H69.624V62.3359C69.7448 62.3359 69.8446 62.3464 69.9863 62.3359C70.1282 62.3254 70.2545 62.2465 70.2441 62.0889C70.2336 61.9313 70.0921 61.9307 69.9765 61.9307C69.7663 61.9307 69.487 61.9359 69.3398 61.9307Z" fill="white"/>
<path d="M50.4858 61.3879H51.0864C51.1617 61.3924 51.2363 61.4084 51.3071 61.4358C51.401 61.4722 51.4865 61.5278 51.558 61.5989C51.6296 61.6701 51.686 61.7559 51.7231 61.8499C51.76 61.9436 51.7775 62.0441 51.7739 62.1448C51.7896 62.7235 51.7836 63.3028 51.7836 63.9709C51.4578 63.7711 51.1689 63.6598 51.2582 63.26C51.3 63.029 51.169 62.9715 50.9643 62.9924C50.828 63.0056 50.6904 63.0056 50.5541 62.9924C50.3019 62.9609 50.1806 63.0447 50.2172 63.3127C50.254 63.5809 50.1651 63.6336 49.9184 63.6389C49.6714 63.6442 49.6918 63.4604 49.6918 63.3079V62.1614C49.6887 62.0573 49.7075 61.9532 49.7465 61.8567C49.7856 61.7601 49.8447 61.6726 49.9194 61.5999C49.994 61.5272 50.0826 61.4703 50.1801 61.4338C50.2776 61.3974 50.3818 61.3821 50.4858 61.3879ZM50.9145 61.9553H50.3881C50.262 61.9553 50.1932 62.0238 50.2035 62.134C50.2141 62.2444 50.1462 62.4023 50.2983 62.4446C50.3956 62.4632 50.4959 62.4632 50.5932 62.4446C50.697 62.4458 50.8007 62.4533 50.9037 62.4661C51.1141 62.4818 51.2406 62.4553 51.2406 62.1819C51.2406 61.9085 51.0722 61.9553 50.9145 61.9553Z" fill="white"/>
<path d="M75.221 61.3878C75.6467 61.3877 76.1514 61.2149 76.4037 61.7882C76.4352 61.8722 76.4983 61.9354 76.4984 62.0353C76.5089 62.6507 76.514 63.2715 76.514 63.9395C76.1567 63.787 75.931 63.6295 75.9886 63.2667C76.0306 63.0406 75.9043 62.9718 75.6996 62.9874C75.5633 63.0005 75.4257 63.0005 75.2894 62.9874C75.0267 62.9558 74.8741 63.0243 74.9212 63.3292C74.9528 63.5238 74.9212 63.6401 74.6585 63.6349C74.3959 63.6296 74.3955 63.5032 74.4007 63.3087V62.172C74.3921 62.0638 74.408 61.9551 74.4466 61.8536C74.4853 61.7521 74.5459 61.6601 74.6244 61.5851C74.7029 61.51 74.7976 61.4531 74.9007 61.419C75.0038 61.3851 75.1134 61.3742 75.221 61.3878ZM75.2591 61.9093C75.0961 61.9145 74.933 61.8827 74.933 62.1456C74.933 62.4085 75.1059 62.4346 75.2689 62.4347H75.7953C75.9163 62.4347 76.0109 62.3664 76.0003 62.256C75.99 62.1455 76.0684 61.9826 75.9212 61.9405C75.7713 61.9194 75.619 61.9194 75.4691 61.9405L75.4847 61.9093H75.2591Z" fill="white"/>
<path d="M62.4906 61.3867C63.1633 61.3868 63.4256 61.7872 63.1576 62.4395C63.1209 62.5287 63.074 62.6284 63.1576 62.6914C63.4992 63.0281 63.3265 63.4701 63.3685 63.9541C63.0269 63.7858 62.7791 63.6593 62.8422 63.291C62.9052 62.9229 62.7217 62.8807 62.4379 62.8965C62.3175 62.9096 62.196 62.9096 62.0756 62.8965C61.7602 62.8491 61.6289 62.9707 61.6762 63.2969C61.7023 63.4861 61.6755 63.6492 61.4076 63.6387C61.1397 63.6281 61.1605 63.4802 61.1605 63.3066V61.666C61.1605 61.468 61.209 61.3948 61.3656 61.3867H62.4906ZM62.7738 62.1133C62.7738 61.7713 62.3956 62.0187 62.2484 61.9346C62.1227 61.9345 62.07 61.9183 61.9496 61.9287C61.8287 61.9392 61.6648 61.898 61.6596 62.1084C61.6545 62.3185 61.7655 62.3496 61.9389 62.3496C62.0298 62.3549 62.1213 62.3549 62.2123 62.3496C62.4226 62.3183 62.7738 62.455 62.7738 62.1133Z" fill="white"/>
<path d="M13.9034 62.2066H40.1832C40.404 62.2066 40.6458 62.1435 40.7982 62.3855C40.8402 63.1378 40.8402 63.1378 40.0886 63.1378H13.956H13.3673C13.4777 62.8222 13.772 62.9695 13.977 62.8958C14.182 62.8222 14.5026 62.8958 14.2346 62.496C14.182 62.4065 14.2346 62.396 14.1084 62.4066C13.456 62.4591 12.8004 62.4591 12.1479 62.4066C12.0428 62.4066 11.8904 62.4065 11.9009 62.2119L13.9034 62.2066Z" fill="white"/>
<path d="M11.9016 62.2109C12.2012 62.3951 12.5218 62.2846 12.8371 62.2951C13.3995 62.2951 13.9619 62.2951 14.5453 62.2951C14.498 62.4529 14.3298 62.3372 14.272 62.4372C14.4034 62.5266 14.6242 62.5634 14.6031 62.7633C14.5821 62.9632 14.3298 62.8896 14.1984 62.958C13.9304 63.1 13.615 62.958 13.368 63.1158H10.9923C11.2341 62.9001 11.5179 62.7054 11.5179 62.3056H10.5508V62.2109H11.9016Z" fill="white"/>
<path d="M67.0533 61.3867C68.0151 61.3867 68.1624 61.5448 68.1939 62.4023C68.2254 63.2596 68.0206 63.6648 67.0328 63.6543C66.1604 63.6543 65.8872 63.3859 65.9449 62.292C65.9764 61.5819 66.1811 61.3868 67.0533 61.3867ZM67.1255 61.9395C66.4688 61.9395 66.5166 61.9395 66.4693 62.6602C66.4379 63.1597 66.7109 63.1126 66.9947 63.0811C67.3729 63.0916 67.7509 63.2121 67.688 62.5762C67.625 61.9396 67.6511 61.9395 67.1255 61.9395Z" fill="white"/>
<path d="M45.1641 61.3855H46.168C46.3658 61.3776 46.5601 61.4423 46.7139 61.5671C46.8675 61.692 46.9709 61.8689 47.0039 62.0642C46.9618 62.2708 46.8579 62.4599 46.707 62.6072C46.5562 62.7544 46.3647 62.8525 46.1572 62.8894C46.0523 62.8973 45.9468 62.8973 45.8418 62.8894C45.4793 62.8316 45.3164 62.9375 45.3584 63.3425C45.4003 63.7473 45.0745 63.7631 44.8223 63.9998V61.696C44.8223 61.4172 44.9275 61.3697 45.1641 61.3855ZM46.0879 61.9324C45.925 61.9324 45.7202 61.9376 45.5625 61.9324C45.4047 61.9271 45.3516 61.9855 45.3516 62.1433C45.3517 62.3008 45.4202 62.3425 45.5674 62.3425H46.0938C46.2671 62.3477 46.451 62.3269 46.4355 62.1013C46.4198 61.8751 46.251 61.9324 46.0879 61.9324Z" fill="white"/>
<path d="M57.8163 61.3792C58.2681 61.3792 58.2945 61.7785 58.3418 62.052C58.3891 62.3256 57.8955 62.884 57.5381 62.8841C57.4472 62.892 57.3555 62.892 57.2645 62.8841C56.8441 62.8104 56.6341 62.9467 56.7128 63.4095C56.7811 63.7514 56.4394 63.7516 56.2188 63.8831V61.6155C56.2188 61.4421 56.2715 61.3739 56.4501 61.3792H57.8163ZM57.291 61.9056C57.1225 62.047 56.7173 61.7322 56.7226 62.137C56.7281 62.5414 57.1121 62.321 57.291 62.3313C57.4699 62.3419 57.8173 62.5206 57.8174 62.1263C57.8174 61.7318 57.4594 62.0369 57.291 61.9056Z" fill="white"/>
</g>
<defs>
<clipPath id="clip0_3169_47">
<rect width="84" height="64" fill="white"/>
</clipPath>
</defs>
</svg>
