<svg width="88" height="88" viewBox="0 0 88 88" fill="none" xmlns="http://www.w3.org/2000/svg">
<mask id="mask0_2191_4832" style="mask-type:alpha" maskUnits="userSpaceOnUse" x="0" y="0" width="88" height="88">
<rect width="88" height="88" transform="matrix(1 -8.74228e-08 -8.74228e-08 -1 0 88)" fill="#D9D9D9"/>
</mask>
<g mask="url(#mask0_2191_4832)">
<g filter="url(#filter0_f_2191_4832)">
<path d="M23.4693 22.0052L18.3359 27.1385L53.5359 62.3385L22.0026 62.3385L22.0026 69.6719L66.0026 69.6719L66.0026 25.6719L58.6693 25.6719L58.6693 57.2052L23.4693 22.0052Z" fill="#09BEE3"/>
</g>
<path d="M23.4693 22.0052L18.3359 27.1385L53.5359 62.3385L22.0026 62.3385L22.0026 69.6719L66.0026 69.6719L66.0026 25.6719L58.6693 25.6719L58.6693 57.2052L23.4693 22.0052Z" fill="#09BEE3"/>
</g>
<defs>
<filter id="filter0_f_2191_4832" x="13.0359" y="16.7039" width="58.2641" height="58.268" filterUnits="userSpaceOnUse" color-interpolation-filters="sRGB">
<feFlood flood-opacity="0" result="BackgroundImageFix"/>
<feBlend mode="normal" in="SourceGraphic" in2="BackgroundImageFix" result="shape"/>
<feGaussianBlur stdDeviation="2.65" result="effect1_foregroundBlur_2191_4832"/>
</filter>
</defs>
</svg>
