<svg width="129" height="130" viewBox="0 0 129 130" fill="none" xmlns="http://www.w3.org/2000/svg">
<rect x="20.9609" y="21.7695" width="85.4736" height="85.4736" rx="42.7368" fill="black" fill-opacity="0.29"/>
<path d="M80.2933 62.5358C81.8088 63.4108 81.8088 65.5982 80.2933 66.4732L57.1063 79.8602C55.5908 80.7351 53.6964 79.6414 53.6964 77.8915L53.6964 51.1174C53.6964 49.3675 55.5908 48.2738 57.1063 49.1488L80.2933 62.5358Z" fill="white"/>
<path d="M68.0033 114.008V125.639H64.0733C63.1608 125.639 62.4149 125.474 61.8357 125.145C61.2526 124.819 60.821 124.378 60.5408 123.822C60.2606 123.265 60.1205 122.644 60.1205 121.959C60.1205 121.273 60.2606 120.651 60.5408 120.09C60.8172 119.53 61.245 119.083 61.8243 118.75C62.4036 118.421 63.1457 118.256 64.0506 118.256H66.8675V119.505H64.096C63.4713 119.505 62.9696 119.613 62.591 119.829C62.2124 120.045 61.9379 120.336 61.7675 120.704C61.5933 121.075 61.5063 121.493 61.5063 121.959C61.5063 122.424 61.5933 122.841 61.7675 123.208C61.9379 123.575 62.2143 123.863 62.5967 124.071C62.9791 124.283 63.4864 124.389 64.1187 124.389H66.5949V114.008H68.0033Z" fill="white"/>
<path d="M57.6445 113.615L55.3754 125.022L53.994 124.747L56.0194 114.565L50.7166 113.51L50.9604 112.285L57.6445 113.615Z" fill="white"/>
<path d="M48.6516 111.524L50.0158 112.089L41.6191 121.2L40.2758 120.644L40.7812 108.264L42.1454 108.829L41.6096 119.205L41.6936 119.24L48.6516 111.524ZM46.4092 115.513L40.9104 113.235L41.3885 112.081L46.8873 114.359L46.4092 115.513Z" fill="white"/>
<path d="M34.4818 117.968L33.1407 117.072L33.475 110.766L33.3616 110.69L27.6631 113.412L26.322 112.516L33.6153 109.165L36.2783 105.18L37.4493 105.962L34.7863 109.948L34.4818 117.968Z" fill="white"/>
<path d="M15.5283 101.254L21.7509 92.9434L21.6751 92.8301L11.6158 95.3986L10.7955 94.1709L22.8391 91.26L23.6468 92.4689L16.3487 102.482L15.5283 101.254Z" fill="white"/>
<path d="M7.61419 86.9139L18.3599 82.4629L18.8989 83.7641L8.15318 88.2151L7.61419 86.9139Z" fill="white"/>
<path d="M16.0703 74.764L16.7705 78.2843L5.36294 80.5535L4.63168 76.8772C4.41157 75.7706 4.45159 74.7782 4.75174 73.9001C5.04819 73.0228 5.57986 72.2897 6.34677 71.701C7.10996 71.1129 8.08198 70.7015 9.26285 70.4666C10.4511 70.2302 11.5163 70.2384 12.4583 70.4911C13.3966 70.7445 14.1765 71.2302 14.798 71.9482C15.4157 72.6668 15.8398 73.6054 16.0703 74.764ZM15.2703 77.1467L14.8626 75.0969C14.675 74.1537 14.3375 73.4082 13.8503 72.8605C13.363 72.3127 12.753 71.9534 12.0203 71.7826C11.2876 71.6118 10.4571 71.6188 9.52876 71.8034C8.60783 71.9866 7.84494 72.2947 7.24007 72.7277C6.63148 73.1614 6.20841 73.7127 5.97084 74.3815C5.72956 75.051 5.69756 75.8313 5.87483 76.7226L6.31359 78.9283L15.2703 77.1467Z" fill="white"/>
<path d="M15 67.6753H3.36891L3.36891 60.6558H4.61835L4.61835 66.2669H8.54838V61.0192H9.79782V66.2669H13.7506L13.7506 60.5649L15 60.5649L15 67.6753Z" fill="white"/>
<path d="M11.3709 48.056C12.574 48.2953 13.5706 48.7193 14.3605 49.3281C15.1504 49.9369 15.7077 50.6674 16.0324 51.5194C16.357 52.3715 16.4226 53.284 16.229 54.2569C16.0355 55.2298 15.6257 56.0478 14.9997 56.7108C14.3737 57.3738 13.5793 57.8353 12.6166 58.0955C11.6538 58.3556 10.5708 58.3661 9.36766 58.1267C8.16452 57.8874 7.16797 57.4634 6.37803 56.8546C5.58809 56.2458 5.0308 55.5154 4.70617 54.6633C4.38153 53.8112 4.31598 52.8987 4.5095 51.9258C4.70303 50.9529 5.11279 50.1349 5.73879 49.4719C6.36479 48.8089 7.15918 48.3474 8.12197 48.0872C9.08475 47.8271 10.1677 47.8166 11.3709 48.056ZM11.105 49.3928C10.1172 49.1963 9.25066 49.1957 8.50536 49.3911C7.76081 49.5827 7.15823 49.9241 6.69764 50.4154C6.23778 50.903 5.93916 51.4921 5.80177 52.1828C5.66438 52.8735 5.71445 53.5339 5.95198 54.1641C6.19024 54.7905 6.61628 55.3366 7.23009 55.8023C7.84465 56.2642 8.64581 56.5934 9.63358 56.7899C10.6213 56.9864 11.4875 56.9888 12.2321 56.7972C12.9774 56.6019 13.5799 56.2604 14.0398 55.7729C14.5004 55.2816 14.7994 54.6906 14.9368 53.9999C15.0741 53.3092 15.0237 52.6506 14.7854 52.0242C14.5479 51.394 14.1219 50.848 13.5073 50.386C12.8935 49.9203 12.0927 49.5893 11.105 49.3928Z" fill="white"/>
<path d="M21.3964 39.9074L11.7256 33.4455L13.909 30.1778C14.4159 29.4192 14.9672 28.8905 15.5629 28.5918C16.1576 28.2879 16.7642 28.1741 17.3826 28.2504C18.001 28.3266 18.5951 28.5551 19.1649 28.9358C19.7347 29.3166 20.1748 29.7791 20.485 30.3233C20.7974 30.8645 20.9312 31.4684 20.8864 32.1352C20.8384 32.7998 20.5631 33.5083 20.0603 34.2607L18.4953 36.6029L17.4565 35.9088L18.9962 33.6044C19.3433 33.0849 19.5323 32.6079 19.5632 32.1732C19.5941 31.7385 19.5042 31.3482 19.2935 31.0025C19.0818 30.6516 18.7823 30.3468 18.3951 30.088C18.0078 29.8293 17.6132 29.6703 17.211 29.6111C16.811 29.5487 16.4182 29.6187 16.0326 29.8209C15.6439 30.0211 15.2739 30.384 14.9226 30.9098L13.5469 32.9686L22.1789 38.7363L21.3964 39.9074Z" fill="white"/>
<path d="M27.479 31.5194L19.2546 23.295L20.2505 22.299L27.5914 29.64L31.4145 25.8169L32.298 26.7004L27.479 31.5194Z" fill="white"/>
<path d="M34.2157 25.2031L32.9879 26.0235L30.0771 13.9798L31.2859 13.1721L41.2988 20.4703L40.0711 21.2906L31.7416 15.0807L31.666 15.1312L34.2157 25.2031ZM32.1448 21.1225L37.0936 17.8158L37.7877 18.8547L32.839 22.1614L32.1448 21.1225Z" fill="white"/>
<path d="M36.7259 9.83943L38.216 9.2222L43.274 13.0038L43.3999 12.9516L44.3024 6.70111L45.7926 6.08388L44.5266 14.0095L46.3609 18.4379L45.0596 18.9769L43.2253 14.5485L36.7259 9.83943Z" fill="white"/>
<path d="M61.1536 3.36891L64.6066 13.1599H64.7429L68.1958 3.36891L69.6724 3.36891L65.4017 15H63.9478L59.677 3.36891L61.1536 3.36891Z" fill="white"/>
<path d="M77.4741 4.75282L75.205 16.1604L73.8236 15.8856L76.0927 4.47805L77.4741 4.75282Z" fill="white"/>
<path d="M82.8839 18.5315L79.5678 17.1579L84.0188 6.41219L87.4818 7.84661C88.5242 8.27838 89.3271 8.86297 89.8904 9.60039C90.4552 10.3343 90.7694 11.1836 90.8328 12.1484C90.8977 13.1097 90.6998 14.1465 90.2391 15.2588C89.7754 16.3782 89.1769 17.2593 88.4434 17.9021C87.7114 18.5415 86.8743 18.9201 85.9321 19.038C84.9913 19.1524 83.9752 18.9835 82.8839 18.5315ZM81.3472 16.5426L83.2781 17.3424C84.1665 17.7104 84.9739 17.844 85.7 17.7432C86.4262 17.6423 87.0638 17.3347 87.6129 16.8204C88.1619 16.3061 88.6176 15.6117 88.9798 14.7372C89.3391 13.8697 89.5068 13.0642 89.4828 12.3207C89.4603 11.5737 89.237 10.9157 88.8129 10.3466C88.3903 9.77405 87.7592 9.31389 86.9197 8.96616L84.8419 8.10551L81.3472 16.5426Z" fill="white"/>
<path d="M89.3728 21.5843L95.8347 11.9134L101.671 15.8133L100.977 16.8521L96.3116 13.7348L94.1282 17.0025L98.4914 19.9179L97.7973 20.9568L93.434 18.0413L91.238 21.3279L95.979 24.4958L95.2849 25.5346L89.3728 21.5843Z" fill="white"/>
<path d="M107.699 29.465C106.831 30.3324 105.925 30.9254 104.98 31.244C104.035 31.5626 103.118 31.6201 102.229 31.4167C101.34 31.2132 100.545 30.7608 99.8439 30.0593C99.1425 29.3579 98.69 28.5628 98.4865 27.6739C98.2831 26.7851 98.3406 25.8681 98.6592 24.9231C98.9778 23.978 99.5708 23.0718 100.438 22.2044C101.306 21.3369 102.212 20.7439 103.157 20.4254C104.102 20.1068 105.019 20.0492 105.908 20.2527C106.797 20.4561 107.592 20.9086 108.293 21.61C108.995 22.3115 109.447 23.1066 109.651 23.9954C109.854 24.8843 109.796 25.8012 109.478 26.7463C109.159 27.6913 108.566 28.5976 107.699 29.465ZM106.735 28.5012C107.447 27.789 107.929 27.0689 108.181 26.3407C108.435 25.6151 108.486 24.9244 108.333 24.2685C108.183 23.6153 107.859 23.0397 107.362 22.5417C106.864 22.0437 106.287 21.7184 105.631 21.5658C104.977 21.4159 104.287 21.4668 103.559 21.7184C102.833 21.9728 102.114 22.456 101.402 23.1682C100.69 23.8803 100.207 24.5991 99.9523 25.3247C99.7007 26.0529 99.6498 26.7436 99.7997 27.3968C99.9523 28.0527 100.278 28.6297 100.776 29.1277C101.274 29.6256 101.849 29.9496 102.502 30.0995C103.158 30.2521 103.849 30.2012 104.575 29.9469C105.303 29.6952 106.023 29.2133 106.735 28.5012Z" fill="white"/>
<path d="M108.898 42.3279L119.644 37.8769L121.147 41.5078C121.497 42.3508 121.63 43.1029 121.547 43.7641C121.47 44.4274 121.227 44.995 120.82 45.4668C120.413 45.9387 119.893 46.3057 119.26 46.568C118.627 46.8302 117.998 46.9391 117.373 46.8947C116.75 46.8538 116.173 46.6295 115.644 46.2218C115.118 45.8127 114.681 45.1901 114.335 44.3541L113.257 41.7516L114.412 41.2735L115.472 43.834C115.711 44.4112 116.003 44.8333 116.347 45.1006C116.691 45.3678 117.066 45.5098 117.47 45.5267C117.88 45.5456 118.3 45.4659 118.73 45.2877C119.16 45.1095 119.512 44.8697 119.784 44.5682C120.058 44.2703 120.218 43.9048 120.264 43.4718C120.314 43.0374 120.218 42.5281 119.976 41.9439L119.028 39.6563L109.437 43.6292L108.898 42.3279Z" fill="white"/>
<path d="M112.501 52.0441L123.908 49.775L124.183 51.1564L114.001 53.1818L115.056 58.4845L113.83 58.7283L112.501 52.0441Z" fill="white"/>
<path d="M114.008 61.1536V59.677L125.639 63.9478V65.4017L114.008 69.6724V68.1958L123.799 64.7201V64.6293L114.008 61.1536ZM118.551 61.6988V67.6506H117.302V61.6988H118.551Z" fill="white"/>
<path d="M125.385 71.7818L125.071 73.3637L119.116 75.4683L119.09 75.602L123.785 79.825L123.471 81.4069L117.584 75.9511L112.883 75.0159L113.158 73.6346L117.859 74.5697L125.385 71.7818Z" fill="white"/>
<path d="M117.199 95.6862L107.14 93.1177L107.064 93.231L113.287 101.542L112.467 102.769L105.168 92.7565L105.976 91.5476L118.02 94.4585L117.199 95.6862Z" fill="white"/>
<path d="M106.98 108.49L98.7552 100.266L99.7511 99.2701L107.976 107.494L106.98 108.49Z" fill="white"/>
<path d="M92.5197 105.324L95.5041 103.33L101.966 113.001L98.8494 115.083C97.9112 115.71 96.9791 116.053 96.053 116.111C95.129 116.173 94.2483 115.963 93.4108 115.479C92.5755 114.999 91.8234 114.259 91.1545 113.258C90.4814 112.25 90.0813 111.263 89.9543 110.296C89.8294 109.332 89.9796 108.426 90.4051 107.577C90.8326 106.731 91.5375 105.98 92.5197 105.324ZM95.0271 105.151L93.2894 106.312C92.4898 106.846 91.9302 107.443 91.6106 108.103C91.291 108.763 91.1925 109.464 91.3151 110.206C91.4377 110.949 91.7619 111.713 92.2878 112.5C92.8094 113.281 93.386 113.868 94.0176 114.261C94.6512 114.657 95.3224 114.837 96.0311 114.801C96.742 114.768 97.4752 114.499 98.2308 113.994L100.101 112.744L95.0271 105.151Z" fill="white"/>
<path d="M86.3716 109.027L90.8226 119.773L84.3374 122.459L83.8593 121.305L89.0432 119.157L87.5393 115.527L82.6911 117.535L82.213 116.38L87.0611 114.372L85.5485 110.72L80.2806 112.902L79.8024 111.748L86.3716 109.027Z" fill="white"/>
<path d="M69.6364 119.886C69.3971 118.683 69.4075 117.6 69.6677 116.637C69.9278 115.674 70.3894 114.88 71.0524 114.254C71.7154 113.628 72.5333 113.218 73.5062 113.025C74.4792 112.831 75.3917 112.897 76.2437 113.221C77.0958 113.546 77.8263 114.103 78.435 114.893C79.0438 115.683 79.4679 116.68 79.7072 117.883C79.9465 119.086 79.9361 120.169 79.676 121.132C79.4158 122.095 78.9542 122.889 78.2913 123.515C77.6283 124.141 76.8103 124.551 75.8374 124.744C74.8645 124.938 73.952 124.872 73.0999 124.548C72.2478 124.223 71.5174 123.666 70.9086 122.876C70.2998 122.086 69.8758 121.089 69.6364 119.886ZM70.9733 119.62C71.1697 120.608 71.5008 121.409 71.9665 122.023C72.4284 122.637 72.9745 123.063 73.6046 123.301C74.2311 123.539 74.8897 123.589 75.5804 123.452C76.271 123.315 76.862 123.016 77.3533 122.555C77.8409 122.095 78.1824 121.493 78.3777 120.747C78.5693 120.003 78.5669 119.137 78.3704 118.149C78.1739 117.161 77.8447 116.36 77.3827 115.745C76.9171 115.132 76.371 114.706 75.7446 114.467C75.1144 114.23 74.454 114.18 73.7633 114.317C73.0726 114.454 72.4835 114.753 71.9959 115.213C71.5046 115.674 71.1631 116.276 70.9715 117.021C70.7762 117.766 70.7768 118.632 70.9733 119.62Z" fill="white"/>
</svg>
