<svg width="41" height="40" viewBox="0 0 41 40" fill="none" xmlns="http://www.w3.org/2000/svg">
<rect x="1.10059" y="1" width="38" height="38" rx="19" stroke="#06B5D9" stroke-width="2"/>
<mask id="mask0_3048_4202" style="mask-type:alpha" maskUnits="userSpaceOnUse" x="2" y="2" width="36" height="36">
<rect x="22.7612" y="2.75879" width="24.8276" height="24.8276" transform="rotate(53.2858 22.7612 2.75879)" fill="#D9D9D9"/>
</mask>
<g mask="url(#mask0_3048_4202)">
<path d="M15.7302 21.9492L13.3991 18.8235C12.6226 17.7822 12.3276 16.621 12.5142 15.3397C12.7006 14.0586 13.3144 13.0298 14.3556 12.2534C15.3967 11.4769 16.558 11.1819 17.8393 11.3684C19.1208 11.5548 20.1499 12.1686 20.9264 13.2099L23.2575 16.3357L22.0136 17.2633L19.6825 14.1376C19.1631 13.4411 18.4742 13.0305 17.6158 12.9056C16.7574 12.7806 15.98 12.9777 15.2836 13.497C14.5873 14.0163 14.1767 14.7051 14.0516 15.5636C13.9265 16.422 14.1237 17.1994 14.643 17.8958L16.9741 21.0216L15.7302 21.9492ZM17.2901 17.4852L18.534 16.5575L23.1723 22.7771L21.9284 23.7047L17.2901 17.4852ZM17.2049 23.9266L18.4488 22.999L20.7798 26.1247C21.2992 26.8211 21.9881 27.2318 22.8465 27.3567C23.705 27.4817 24.4824 27.2846 25.1787 26.7653C25.875 26.246 26.2856 25.5571 26.4107 24.6986C26.5358 23.8403 26.3387 23.0629 25.8193 22.3664L23.4882 19.2407L24.7321 18.313L27.0632 21.4388C27.8397 22.4801 28.1347 23.6413 27.9481 24.9225C27.7617 26.2037 27.1479 27.2324 26.1067 28.0089C25.0656 28.7853 23.9043 29.0803 22.623 28.8938C21.3415 28.7075 20.3125 28.0936 19.5359 27.0523L17.2049 23.9266Z" fill="white"/>
</g>
</svg>
